<mxfile host="app.diagrams.net" agent="Mozilla/5.0 (Windows NT 10.0; Win64; x64; rv:141.0) Gecko/20100101 Firefox/141.0" version="28.0.7">
  <diagram name="PÃ¡gina-1" id="TMDoCD8hCcpHIJEySzZF">
    <mxGraphModel dx="698" dy="390" grid="1" gridSize="10" guides="1" tooltips="1" connect="1" arrows="1" fold="1" page="1" pageScale="1" pageWidth="827" pageHeight="1169" math="0" shadow="0">
      <root>
        <mxCell id="0" />
        <mxCell id="1" parent="0" />
        <mxCell id="UQOomTZAaCyZAPaUyG3R-46" style="edgeStyle=orthogonalEdgeStyle;rounded=0;orthogonalLoop=1;jettySize=auto;html=1;entryX=0.5;entryY=0.5;entryDx=0;entryDy=-15;entryPerimeter=0;" parent="1" edge="1">
          <mxGeometry relative="1" as="geometry">
            <mxPoint x="414" y="530" as="targetPoint" />
          </mxGeometry>
        </mxCell>
        <mxCell id="QcQdOetUA6qP5Ii0NC-2-26" style="edgeStyle=orthogonalEdgeStyle;rounded=0;orthogonalLoop=1;jettySize=auto;html=1;" edge="1" parent="1" target="QcQdOetUA6qP5Ii0NC-2-22">
          <mxGeometry relative="1" as="geometry">
            <mxPoint x="140" y="710" as="sourcePoint" />
          </mxGeometry>
        </mxCell>
        <mxCell id="QcQdOetUA6qP5Ii0NC-2-98" style="edgeStyle=orthogonalEdgeStyle;rounded=0;orthogonalLoop=1;jettySize=auto;html=1;" edge="1" parent="1" source="QcQdOetUA6qP5Ii0NC-2-96" target="QcQdOetUA6qP5Ii0NC-2-97">
          <mxGeometry relative="1" as="geometry" />
        </mxCell>
        <mxCell id="QcQdOetUA6qP5Ii0NC-2-96" value="Recive Feedback" style="html=1;dashed=0;whiteSpace=wrap;shape=mxgraph.dfd.start" vertex="1" parent="1">
          <mxGeometry x="374" y="40" width="80" height="30" as="geometry" />
        </mxCell>
        <mxCell id="QcQdOetUA6qP5Ii0NC-2-103" style="edgeStyle=orthogonalEdgeStyle;rounded=0;orthogonalLoop=1;jettySize=auto;html=1;" edge="1" parent="1" source="QcQdOetUA6qP5Ii0NC-2-97" target="QcQdOetUA6qP5Ii0NC-2-102">
          <mxGeometry relative="1" as="geometry" />
        </mxCell>
        <mxCell id="QcQdOetUA6qP5Ii0NC-2-97" value="Get name, sender and subject" style="html=1;dashed=0;whiteSpace=wrap;" vertex="1" parent="1">
          <mxGeometry x="364" y="130" width="100" height="50" as="geometry" />
        </mxCell>
        <mxCell id="QcQdOetUA6qP5Ii0NC-2-105" style="edgeStyle=orthogonalEdgeStyle;rounded=0;orthogonalLoop=1;jettySize=auto;html=1;" edge="1" parent="1" source="QcQdOetUA6qP5Ii0NC-2-102" target="QcQdOetUA6qP5Ii0NC-2-104">
          <mxGeometry relative="1" as="geometry" />
        </mxCell>
        <mxCell id="QcQdOetUA6qP5Ii0NC-2-102" value="&lt;div&gt;Send to sender the message&lt;/div&gt;&lt;div&gt;&quot;Dear {name}, we recived your message about &#39;{subject}&#39; and our team will review it, shortly we will be working on it&quot;&lt;/div&gt;" style="html=1;dashed=0;whiteSpace=wrap;" vertex="1" parent="1">
          <mxGeometry x="308" y="240" width="212" height="90" as="geometry" />
        </mxCell>
        <mxCell id="QcQdOetUA6qP5Ii0NC-2-104" value="Return message" style="html=1;dashed=0;whiteSpace=wrap;shape=mxgraph.dfd.start" vertex="1" parent="1">
          <mxGeometry x="374" y="390" width="80" height="30" as="geometry" />
        </mxCell>
      </root>
    </mxGraphModel>
  </diagram>
</mxfile>
